<svg width="292" height="74" viewBox="0 0 292 74" fill="none" xmlns="http://www.w3.org/2000/svg">
<path d="M97.2875 49.28C95.2902 49.28 93.4888 48.8507 91.8835 47.992C90.2782 47.1147 89.0182 45.9107 88.1035 44.38C87.1888 42.8307 86.7315 41.104 86.7315 39.2C86.7315 37.296 87.1888 35.5787 88.1035 34.048C89.0182 32.4987 90.2782 31.2947 91.8835 30.436C93.4888 29.5587 95.2902 29.12 97.2875 29.12C99.2848 29.12 101.086 29.5587 102.692 30.436C104.297 31.2947 105.557 32.4893 106.472 34.02C107.386 35.5507 107.844 37.2773 107.844 39.2C107.844 41.1227 107.386 42.8493 106.472 44.38C105.557 45.9107 104.297 47.1147 102.692 47.992C101.086 48.8507 99.2848 49.28 97.2875 49.28ZM97.2875 46.088C98.5942 46.088 99.7702 45.7987 100.816 45.22C101.861 44.6227 102.682 43.8013 103.28 42.756C103.877 41.692 104.176 40.5067 104.176 39.2C104.176 37.8933 103.877 36.7173 103.28 35.672C102.682 34.608 101.861 33.7867 100.816 33.208C99.7702 32.6107 98.5942 32.312 97.2875 32.312C95.9808 32.312 94.8048 32.6107 93.7595 33.208C92.7142 33.7867 91.8928 34.608 91.2955 35.672C90.6982 36.7173 90.3995 37.8933 90.3995 39.2C90.3995 40.5067 90.6982 41.692 91.2955 42.756C91.8928 43.8013 92.7142 44.6227 93.7595 45.22C94.8048 45.7987 95.9808 46.088 97.2875 46.088ZM133.49 34.048L127.974 49H124.614L120.75 38.696L116.83 49H113.47L107.982 34.048H111.286L115.234 45.08L119.35 34.048H122.29L126.322 45.136L130.382 34.048H133.49ZM134.696 28.224H138.196V49H134.696V28.224ZM163.696 45.92V49H146.98V46.564L158.516 32.48H147.176V29.4H163.332V31.836L151.796 45.92H163.696ZM165.495 34.048H168.995V49H165.495V34.048ZM167.259 31.584C166.624 31.584 166.092 31.388 165.663 30.996C165.233 30.5853 165.019 30.0813 165.019 29.484C165.019 28.8867 165.233 28.392 165.663 28C166.092 27.5893 166.624 27.384 167.259 27.384C167.893 27.384 168.425 27.58 168.855 27.972C169.284 28.3453 169.499 28.8213 169.499 29.4C169.499 30.016 169.284 30.5387 168.855 30.968C168.444 31.3787 167.912 31.584 167.259 31.584ZM187.228 34.048V46.732C187.228 51.996 184.54 54.628 179.164 54.628C177.727 54.628 176.364 54.4413 175.076 54.068C173.788 53.7133 172.724 53.1907 171.884 52.5L173.452 49.868C174.106 50.4093 174.927 50.8387 175.916 51.156C176.924 51.492 177.942 51.66 178.968 51.66C180.611 51.66 181.815 51.2867 182.58 50.54C183.346 49.7933 183.728 48.6547 183.728 47.124V46.34C183.131 46.9933 182.403 47.488 181.544 47.824C180.686 48.16 179.743 48.328 178.716 48.328C177.298 48.328 176.01 48.0293 174.852 47.432C173.714 46.816 172.808 45.9573 172.136 44.856C171.483 43.7547 171.156 42.4947 171.156 41.076C171.156 39.6573 171.483 38.4067 172.136 37.324C172.808 36.2227 173.714 35.3733 174.852 34.776C176.01 34.1787 177.298 33.88 178.716 33.88C179.799 33.88 180.779 34.0573 181.656 34.412C182.552 34.7667 183.299 35.308 183.896 36.036V34.048H187.228ZM179.248 45.36C180.574 45.36 181.656 44.968 182.496 44.184C183.355 43.3813 183.784 42.3453 183.784 41.076C183.784 39.8253 183.355 38.808 182.496 38.024C181.656 37.24 180.574 36.848 179.248 36.848C177.904 36.848 176.803 37.24 175.944 38.024C175.104 38.808 174.684 39.8253 174.684 41.076C174.684 42.3453 175.104 43.3813 175.944 44.184C176.803 44.968 177.904 45.36 179.248 45.36ZM209.502 33.88C211.387 33.88 212.881 34.4307 213.982 35.532C215.083 36.6147 215.634 38.248 215.634 40.432V49H212.134V40.88C212.134 39.5733 211.845 38.5933 211.266 37.94C210.687 37.268 209.857 36.932 208.774 36.932C207.598 36.932 206.655 37.324 205.946 38.108C205.237 38.8733 204.882 39.9747 204.882 41.412V49H201.382V40.88C201.382 39.5733 201.093 38.5933 200.514 37.94C199.935 37.268 199.105 36.932 198.022 36.932C196.827 36.932 195.875 37.3147 195.166 38.08C194.475 38.8453 194.13 39.956 194.13 41.412V49H190.63V34.048H193.962V35.952C194.522 35.28 195.222 34.7667 196.062 34.412C196.902 34.0573 197.835 33.88 198.862 33.88C199.982 33.88 200.971 34.0947 201.83 34.524C202.707 34.9347 203.398 35.5507 203.902 36.372C204.518 35.588 205.311 34.9813 206.282 34.552C207.253 34.104 208.326 33.88 209.502 33.88ZM233.382 34.048V49H230.05V47.096C229.49 47.768 228.79 48.2907 227.95 48.664C227.11 49.0187 226.205 49.196 225.234 49.196C223.237 49.196 221.66 48.6453 220.502 47.544C219.364 46.424 218.794 44.772 218.794 42.588V34.048H222.294V42.112C222.294 43.456 222.593 44.464 223.19 45.136C223.806 45.7893 224.674 46.116 225.794 46.116C227.045 46.116 228.034 45.7333 228.762 44.968C229.509 44.184 229.882 43.064 229.882 41.608V34.048H233.382ZM245.249 33.88C247.134 33.88 248.646 34.4307 249.785 35.532C250.924 36.6333 251.493 38.2667 251.493 40.432V49H247.993V40.88C247.993 39.5733 247.685 38.5933 247.069 37.94C246.453 37.268 245.576 36.932 244.437 36.932C243.149 36.932 242.132 37.324 241.385 38.108C240.638 38.8733 240.265 39.984 240.265 41.44V49H236.765V34.048H240.097V35.98C240.676 35.2893 241.404 34.7667 242.281 34.412C243.158 34.0573 244.148 33.88 245.249 33.88ZM269.514 28.224V49H266.154V47.068C265.575 47.7773 264.856 48.3093 263.998 48.664C263.158 49.0187 262.224 49.196 261.198 49.196C259.76 49.196 258.463 48.8787 257.306 48.244C256.167 47.6093 255.271 46.7133 254.618 45.556C253.964 44.38 253.638 43.036 253.638 41.524C253.638 40.012 253.964 38.6773 254.618 37.52C255.271 36.3627 256.167 35.4667 257.306 34.832C258.463 34.1973 259.76 33.88 261.198 33.88C262.187 33.88 263.092 34.048 263.914 34.384C264.735 34.72 265.435 35.224 266.014 35.896V28.224H269.514ZM261.618 46.2C262.458 46.2 263.214 46.0133 263.886 45.64C264.558 45.248 265.09 44.6973 265.482 43.988C265.874 43.2787 266.07 42.4573 266.07 41.524C266.07 40.5907 265.874 39.7693 265.482 39.06C265.09 38.3507 264.558 37.8093 263.886 37.436C263.214 37.044 262.458 36.848 261.618 36.848C260.778 36.848 260.022 37.044 259.35 37.436C258.678 37.8093 258.146 38.3507 257.754 39.06C257.362 39.7693 257.166 40.5907 257.166 41.524C257.166 42.4573 257.362 43.2787 257.754 43.988C258.146 44.6973 258.678 45.248 259.35 45.64C260.022 46.0133 260.778 46.2 261.618 46.2Z" fill="white"/>
<g clip-path="url(#clip0)">
<path d="M19.0354 16.6582L23.7107 26.4886C28.5407 26.7329 33.34 25.5955 37.5441 23.2105C41.1578 21.1383 44.2005 18.2049 46.4 14.6725L40.3312 5.04175C31.9759 5.96338 24.3228 10.1379 19.0354 16.6582Z" stroke="white" stroke-width="1.5" stroke-miterlimit="10"/>
<path d="M50.1799 40.4706C46.8236 45.6952 52.0524 64.9487 57.1869 64.6825C58.4784 64.6159 59.4088 63.2102 61.2655 60.4017C63.5541 56.9513 64.3 53.8886 65.2421 49.8624C66.8122 43.2043 66.2706 40.3688 65.8701 38.8961C65.2381 36.5893 64.4138 35.7629 63.7779 35.3478C62.0781 34.2198 59.9858 34.7603 57.709 35.3478C56.5314 35.6571 53.4891 36.4835 51.1221 39.2095C50.7823 39.6101 50.4677 40.0312 50.1799 40.4706Z" stroke="white" stroke-width="1.5" stroke-miterlimit="10"/>
<path d="M59.2166 35.2929C59.723 34.588 61.9645 31.3372 61.0773 27.4599C60.3276 24.1817 57.7053 22.1295 57.0301 21.636C55.1655 20.2692 54.243 20.5786 52.8495 18.9884C51.8408 17.7813 51.1355 16.3513 50.7925 14.8174C50.5334 13.6424 50.6629 13.2037 50.3293 11.2416C49.9093 8.78983 49.8739 8.55876 49.7287 8.52743C49.3872 8.45301 48.3028 9.73764 46.5837 14.3278" stroke="white" stroke-width="1.5" stroke-miterlimit="10"/>
<path d="M23.8795 26.8255C22.6698 26.5576 21.5639 25.9453 20.6959 25.0631C19.8872 24.2092 19.7577 23.5239 19.5418 23.5826C18.9726 23.7197 18.4112 28.9913 21.0688 31.3922C21.8539 32.1128 22.9177 32.5671 23.4555 33.9105C23.7038 34.5644 23.7952 35.2672 23.7224 35.9628C23.5811 38.2422 23.3652 41.6691 23.589 43.2436C23.9344 45.66 26.38 48.2019 28.0365 49.0008C28.5682 49.2261 29.0274 49.5934 29.3634 50.0622C30.1484 51.2058 29.7559 52.5374 29.6774 53.8181C29.5832 55.2868 30.0385 56.5597 30.9532 59.0624C32.916 64.4278 40.339 69.1671 40.9082 69.5235C40.9082 69.5235 48.9751 73.44 64.6574 66.9386C65.1835 66.7229 66.5692 66.1554 66.5142 65.5484C66.475 65.0819 65.5839 64.8076 64.9911 64.624C63.2521 64.0875 62.2433 64.4634 60.2806 64.1616C59.6604 64.0657 59.0496 63.916 58.4552 63.7152" stroke="white" stroke-width="1.5" stroke-miterlimit="10"/>
<path d="M26.9413 48.9419C26.185 51.9822 26.3406 55.1772 27.3888 58.1301C28.0626 59.9815 29.0935 61.6833 30.4232 63.1395C31.9698 64.808 33.6303 65.6618 35.7972 66.8128C37.0674 67.4887 38.3784 68.0854 39.7227 68.5989" stroke="white" stroke-miterlimit="10"/>
<path d="M23.5889 33.4366C25.1047 31.3658 27.2626 29.8516 29.7284 29.1284C30.9902 28.769 32.3075 28.6442 33.6146 28.7603C34.9019 28.8881 36.1702 29.1627 37.3948 29.5788L38.2938 29.8647C38.5999 29.9626 38.9061 30.0723 39.2084 30.1859C39.8183 30.4185 40.4134 30.688 40.9906 30.9927C42.1582 31.6046 43.2437 32.3613 44.2212 33.2447C44.7329 33.697 45.1948 34.2025 45.5991 34.7525C45.819 35.0577 46.0096 35.3829 46.1683 35.7239C46.3172 36.0583 46.4393 36.4041 46.5334 36.7578C46.8624 38.1484 46.793 39.6032 46.3331 40.9563L46.0309 41.9002L45.0731 41.5712C43.6297 41.1005 42.3904 40.1528 41.5598 38.8845C41.4468 38.7073 41.3484 38.5213 41.2654 38.3283C41.189 38.1479 41.1222 37.9635 41.0651 37.7761C40.9697 37.4347 40.8937 37.0882 40.8375 36.7382C40.7079 36.0646 40.6294 35.4066 40.5509 34.7799C40.369 33.45 40.3138 32.1059 40.386 30.7655C40.4781 29.4048 40.7622 28.0639 41.23 26.7824C41.4595 26.1451 41.7309 25.5237 42.0426 24.9221C42.3498 24.3214 42.6987 23.743 43.0868 23.191C43.8591 22.0924 44.7935 21.1166 45.8582 20.2967C46.3684 19.8617 46.9132 19.4687 47.4872 19.1217C48.0873 18.7769 48.7589 18.5745 49.45 18.5303C50.1238 18.4974 50.7977 18.5918 51.4363 18.8084C52.0558 19.0237 52.6383 19.3328 53.1635 19.7248C52.0521 19.1155 50.7705 18.8884 49.5168 19.0786C48.9336 19.1925 48.3827 19.4332 47.9034 19.7836C47.4093 20.1631 46.9447 20.5795 46.5137 21.0291C45.5972 21.8635 44.8124 22.8313 44.1859 23.8999C43.8759 24.4317 43.5942 24.9795 43.3419 25.5409C43.0953 26.1002 42.8842 26.6745 42.7099 27.2602C42.3666 28.4264 42.1663 29.6297 42.1133 30.8439C42.096 32.0775 42.1946 33.3101 42.4077 34.5254C42.5019 35.1638 42.5804 35.7865 42.7021 36.374C42.7562 36.6569 42.8256 36.9367 42.9101 37.2121C42.9533 37.3375 42.9965 37.4589 43.0436 37.5607C43.0873 37.665 43.1412 37.7646 43.2046 37.8583C43.8242 38.7442 44.7177 39.4032 45.7483 39.7343L44.4921 40.3493C44.8519 39.344 44.9186 38.2576 44.6845 37.2161C44.6228 36.9731 44.54 36.7359 44.4372 36.5072C44.3282 36.2792 44.1967 36.0627 44.0446 35.8609C43.7144 35.4081 43.3454 34.9848 42.9415 34.5959C42.1031 33.7804 41.1639 33.0749 40.1466 32.4966C39.6402 32.2029 39.1063 31.9444 38.5764 31.7133C38.3055 31.588 38.0307 31.4744 37.752 31.3648L36.912 31.024C35.8016 30.5804 34.6497 30.2484 33.4732 30.0331C32.303 29.8339 31.1063 29.8458 29.9403 30.0684C27.5363 30.5408 25.3262 31.7129 23.5889 33.4366Z" fill="white"/>
<path d="M28.3346 33.272C28.7097 32.6513 29.2543 32.1499 29.9047 31.8269C30.5618 31.4984 31.2665 31.2751 31.9931 31.165C32.7267 31.0402 33.4726 31.0033 34.2149 31.0553C34.9769 31.1025 35.7293 31.2499 36.4524 31.494C37.2192 31.7395 37.9273 32.1395 38.533 32.6689C39.1553 33.2294 39.6447 33.9211 39.9658 34.6938C40.2973 35.4776 40.4605 36.3222 40.4447 37.1729C40.4273 37.5939 40.3695 38.0123 40.272 38.4223C40.1642 38.8439 40.0101 39.2524 39.8127 39.6403C39.408 40.46 38.7686 41.1416 37.9756 41.5986C37.2047 42.0248 36.3324 42.2346 35.4515 42.2056C34.663 42.1769 33.8818 42.0452 33.1276 41.814C32.3846 41.6219 31.6646 41.3501 30.9803 41.0033C30.2986 40.647 29.6952 40.1581 29.2057 39.5655C28.7163 38.9729 28.3507 38.2886 28.1304 37.5528C27.9227 36.8476 27.8299 36.1137 27.8556 35.3791C27.829 34.6472 27.9941 33.9209 28.3346 33.272ZM28.3346 33.272C28.006 33.9188 27.8698 34.6458 27.942 35.3674C27.9609 36.0835 28.1167 36.7893 28.4013 37.4471C28.6839 38.085 29.1017 38.6542 29.6261 39.1155C30.1398 39.5576 30.74 39.8883 31.3886 40.0868C32.0492 40.279 32.728 40.4024 33.4142 40.4549C34.0722 40.5472 34.7386 40.5642 35.4005 40.5059C35.9611 40.4767 36.504 40.3001 36.9742 39.994C37.4444 39.6879 37.825 39.2632 38.0776 38.763C38.3349 38.2287 38.4957 37.6533 38.5526 37.0633C38.611 36.4586 38.5605 35.8485 38.4034 35.2616C38.2364 34.6499 37.9448 34.0789 37.5471 33.5844C37.1493 33.0898 36.6537 32.6822 36.0913 32.3869C34.8552 31.6965 33.4519 31.3603 32.0363 31.4156C31.3188 31.4397 30.6121 31.5965 29.9518 31.8778C29.2801 32.1627 28.7146 32.6503 28.3346 33.272Z" fill="white"/>
<path d="M34.5252 33.844C34.9848 33.844 35.3574 33.4722 35.3574 33.0137C35.3574 32.5551 34.9848 32.1833 34.5252 32.1833C34.0656 32.1833 33.693 32.5551 33.693 33.0137C33.693 33.4722 34.0656 33.844 34.5252 33.844Z" fill="white"/>
<path d="M46.9456 27.4013C47.4052 27.4013 47.7778 27.0296 47.7778 26.571C47.7778 26.1125 47.4052 25.7407 46.9456 25.7407C46.486 25.7407 46.1134 26.1125 46.1134 26.571C46.1134 27.0296 46.486 27.4013 46.9456 27.4013Z" fill="white"/>
<path d="M46.5805 24.1386C47.683 23.101 49.1026 22.4625 50.612 22.3252C51.3926 22.2773 52.1745 22.3976 52.9045 22.6777C53.6817 22.9847 54.3385 23.5343 54.7769 24.2443C55.1904 24.9757 55.4245 25.7944 55.46 26.6334C55.46 26.8331 55.46 27.0251 55.4835 27.2287V27.5146V27.824C55.4702 28.2393 55.4176 28.6523 55.3265 29.0577C55.1475 29.8676 54.8429 30.6446 54.4236 31.3607C54.0188 32.0356 53.5607 32.6774 53.0536 33.2797C52.55 33.9642 51.9326 34.5576 51.2283 35.0343C50.3891 35.5251 49.3961 35.6844 48.4451 35.4808C47.6161 35.2799 46.8381 34.9091 46.1604 34.3921C45.4739 33.9139 44.906 33.2856 44.5 32.5552C44.1051 31.8361 43.91 31.0248 43.9347 30.2052C43.9834 29.4443 44.1298 28.6927 44.3704 27.9689C44.7097 26.5016 45.4791 25.1682 46.5805 24.1386ZM46.5805 24.1386C46.3083 24.3917 46.0576 24.6668 45.8307 24.961C45.6081 25.2653 45.4162 25.5906 45.2576 25.9323C44.943 26.6002 44.7325 27.3121 44.6335 28.0433C44.495 28.7565 44.4567 29.4855 44.5196 30.2092C44.6099 30.8822 44.8812 31.5184 45.3047 32.05C45.7341 32.5591 46.2701 32.9681 46.8749 33.2484C47.4362 33.5547 48.0524 33.7477 48.6885 33.8163C49.2201 33.869 49.7538 33.7376 50.1998 33.4442C50.6979 33.0424 51.1402 32.5762 51.5148 32.0578C51.972 31.5257 52.3992 30.9686 52.7946 30.3894C53.1629 29.8398 53.4609 29.2464 53.6817 28.623C53.7919 28.3127 53.8785 27.9946 53.9408 27.6713L53.9879 27.4245L54.0272 27.1543C54.0507 26.9793 54.0703 26.807 54.086 26.6373C54.174 25.9788 54.1096 25.3089 53.8976 24.679C53.6575 24.0579 53.2169 23.5343 52.6454 23.1908C52.0222 22.8372 51.3272 22.6284 50.612 22.5798C49.1149 22.5497 47.6663 23.1098 46.5805 24.1386Z" fill="white"/>
<path d="M50.3085 11.7503C50.6744 11.4183 51.1315 11.1692 51.6385 11.0255C52.1456 10.8817 52.6866 10.8478 53.2128 10.9269C53.8523 11.0214 54.4261 11.3188 54.8188 11.7594C55.1687 12.1822 55.3798 12.677 55.4304 13.1927C55.4304 13.3055 55.4555 13.4092 55.4626 13.4976C55.4697 13.5861 55.4626 13.7416 55.4626 13.8636C55.4494 14.1063 55.4087 14.3473 55.341 14.5833C55.2053 15.0411 54.9619 15.4706 54.6256 15.8458C54.327 16.2047 53.9472 16.5091 53.5086 16.741C53.0701 16.973 52.5816 17.1279 52.0718 17.1967C52.646 16.6235 53.1053 15.9733 53.431 15.2725C53.563 14.9685 53.6518 14.6522 53.6957 14.3302C53.7099 14.1779 53.7099 14.025 53.6957 13.8728C53.6957 13.7995 53.6957 13.7233 53.6957 13.6471L53.6599 13.3756C53.6406 13.1014 53.5618 12.8325 53.4274 12.5828C53.2894 12.3611 53.0746 12.1812 52.8122 12.0674C52.0246 11.7765 51.1612 11.6672 50.3085 11.7503Z" fill="white"/>
<path d="M19.3664 27.5292C18.7444 27.9868 18.325 28.6287 18.1838 29.3393C18.1423 29.621 18.1651 29.9074 18.2505 30.181C18.3227 30.4435 18.4484 30.6917 18.6213 30.913C19.0772 31.3908 19.6654 31.7523 20.3265 31.9611C21.1135 32.281 21.9474 32.4983 22.8029 32.6066C21.9862 33.1391 20.9682 33.3604 19.9706 33.2221C19.4583 33.1757 18.9576 33.0555 18.4878 32.8662C18.2255 32.7585 17.9769 32.6258 17.7464 32.4702C17.5156 32.3018 17.3089 32.1084 17.131 31.8946C16.9603 31.6765 16.822 31.4394 16.7195 31.1892C16.6181 30.9459 16.5508 30.6921 16.5193 30.4339C16.4528 29.9113 16.5545 29.3825 16.8122 28.91C17.0546 28.4599 17.442 28.0855 17.9243 27.8353C18.3605 27.6071 18.8625 27.5006 19.3664 27.5292Z" fill="white"/>
<path d="M30.5332 33.0137C30.4505 33.6106 30.4098 34.2126 30.4115 34.8153C30.4209 35.2717 30.4855 35.7254 30.6039 36.1664C30.73 36.6239 30.9023 37.0674 31.1181 37.4902C31.377 38.0347 31.6776 38.5584 32.017 39.0569C31.6554 39.1135 31.2859 39.0939 30.9323 38.9995C30.5788 38.9051 30.2489 38.7378 29.964 38.5085C29.3488 38.0525 28.9062 37.4024 28.7078 36.6638C28.5059 35.9074 28.5839 35.1037 28.9277 34.4001C29.0856 34.0714 29.3096 33.7787 29.5858 33.5402C29.8621 33.3016 30.1845 33.1225 30.5332 33.0137Z" fill="white"/>
<path d="M48.5354 23.8842C48.8484 23.6167 49.2174 23.4223 49.6154 23.3152C50.0134 23.2081 50.4303 23.1911 50.8357 23.2654C51.273 23.3375 51.6909 23.4974 52.0644 23.7354C52.4321 23.9806 52.7515 24.2912 53.0065 24.6518C53.2707 25.0133 53.4572 25.4253 53.5545 25.862C53.6518 26.2987 53.6577 26.7507 53.5718 27.1898C53.4998 27.5852 53.3491 27.9622 53.1287 28.2985C52.9082 28.6348 52.6224 28.9237 52.2881 29.148C52.2598 28.4708 52.1731 27.7973 52.0291 27.1349C51.9214 26.6516 51.72 26.1939 51.4363 25.7876C51.1437 25.3671 50.7765 25.0034 50.3529 24.7145C49.7871 24.3576 49.1758 24.0784 48.5354 23.8842Z" fill="white"/>
<path d="M22.0776 23.2264C25.8598 23.0262 29.5696 22.1118 33.0102 20.5318C37.3832 18.5059 41.2061 15.464 44.1585 11.6609" stroke="white" stroke-width="1.5" stroke-miterlimit="10"/>
<path d="M38.9727 68.6228C39.0521 69.173 39.262 69.6969 39.5851 70.1502C39.8182 70.4227 40.1129 70.6362 40.4448 70.7727C40.6216 70.8502 40.804 70.9144 40.9904 70.9649C41.198 71.0166 41.4093 71.0521 41.6224 71.0705C41.8452 71.0998 42.0709 71.0998 42.2937 71.0705C42.5866 71.0149 42.8583 70.8794 43.0788 70.6792C43.1403 70.8651 43.1584 71.0625 43.1319 71.2564C43.1054 71.4509 43.0349 71.6362 42.9257 71.7992C42.6962 72.1446 42.3718 72.4166 41.9914 72.5824C41.6216 72.7494 41.2198 72.8349 40.8138 72.8331C40.4077 72.828 40.0069 72.7396 39.6361 72.5744C39.2396 72.3994 38.892 72.1308 38.6233 71.7912C38.3626 71.4481 38.1949 71.043 38.1366 70.6161C38.0731 70.2391 38.1179 69.8518 38.2658 69.499C38.4138 69.1461 38.6589 68.8426 38.9727 68.6228Z" fill="white"/>
<path d="M43.6912 70.8391C44.2533 71.2029 44.8504 71.5098 45.4734 71.756C45.9448 71.9436 46.4458 72.0469 46.9533 72.0612C47.4541 72.0664 47.9516 71.9798 48.4214 71.8065C49.0428 71.5758 49.6376 71.2792 50.1958 70.9217C50.2087 71.3245 50.1347 71.725 49.979 72.0968C49.8232 72.468 49.5893 72.802 49.2929 73.0757C48.9786 73.3821 48.6065 73.6231 48.1982 73.7854C47.7899 73.9472 47.3534 74.027 46.9141 74.0195C46.0337 73.9989 45.1965 73.6345 44.5823 73.0051C44.4383 72.8628 44.307 72.7079 44.1897 72.5432C44.0738 72.378 43.9739 72.2024 43.8914 72.0182C43.7287 71.6476 43.6599 71.243 43.6912 70.8391Z" fill="white"/>
</g>
<defs>
<clipPath id="clip0">
<rect width="51" height="70" fill="white" transform="translate(16.4995 4)"/>
</clipPath>
</defs>
</svg>
