<svg width="28" height="20" viewBox="0 0 28 20" fill="none" xmlns="http://www.w3.org/2000/svg">
<path d="M27.125 9.62988C27.125 9.56543 27.125 9.49219 27.1221 9.40723C27.1191 9.16992 27.1133 8.90332 27.1074 8.61914C27.084 7.80176 27.043 6.9873 26.9785 6.21973C26.8906 5.16211 26.7617 4.28027 26.5859 3.61816C26.4004 2.9272 26.0368 2.29702 25.5315 1.79061C25.0261 1.28421 24.3966 0.919324 23.7061 0.732422C22.877 0.509765 21.2539 0.37207 18.9688 0.287109C17.8818 0.246094 16.7187 0.219726 15.5557 0.205078C15.1484 0.199219 14.7705 0.196289 14.4307 0.193359H13.5693C13.2295 0.196289 12.8516 0.199219 12.4443 0.205078C11.2812 0.219726 10.1182 0.246094 9.03125 0.287109C6.74609 0.375 5.12012 0.512695 4.29395 0.732422C3.60313 0.918866 2.97345 1.2836 2.468 1.79007C1.96256 2.29655 1.5991 2.92697 1.41406 3.61816C1.23535 4.28027 1.10938 5.16211 1.02148 6.21973C0.957031 6.9873 0.916016 7.80176 0.892578 8.61914C0.883789 8.90332 0.880859 9.16992 0.87793 9.40723C0.87793 9.49219 0.875 9.56543 0.875 9.62988V9.79394C0.875 9.8584 0.875 9.93164 0.87793 10.0166C0.880859 10.2539 0.886719 10.5205 0.892578 10.8047C0.916016 11.6221 0.957031 12.4365 1.02148 13.2041C1.10938 14.2617 1.23828 15.1436 1.41406 15.8057C1.78906 17.209 2.89062 18.3164 4.29395 18.6914C5.12012 18.9141 6.74609 19.0518 9.03125 19.1367C10.1182 19.1777 11.2812 19.2041 12.4443 19.2188C12.8516 19.2246 13.2295 19.2275 13.5693 19.2305H14.4307C14.7705 19.2275 15.1484 19.2246 15.5557 19.2188C16.7187 19.2041 17.8818 19.1777 18.9688 19.1367C21.2539 19.0488 22.8799 18.9111 23.7061 18.6914C25.1094 18.3164 26.2109 17.2119 26.5859 15.8057C26.7646 15.1436 26.8906 14.2617 26.9785 13.2041C27.043 12.4365 27.084 11.6221 27.1074 10.8047C27.1162 10.5205 27.1191 10.2539 27.1221 10.0166C27.1221 9.93164 27.125 9.8584 27.125 9.79394V9.62988ZM25.0156 9.78223C25.0156 9.84375 25.0156 9.91113 25.0127 9.99023C25.0098 10.2187 25.0039 10.4707 24.998 10.7432C24.9775 11.5225 24.9365 12.3018 24.875 13.0254C24.7959 13.9687 24.6846 14.7422 24.5469 15.2607C24.3652 15.9375 23.832 16.4736 23.1582 16.6523C22.543 16.8164 20.9932 16.9482 18.8867 17.0273C17.8203 17.0684 16.6719 17.0947 15.5264 17.1094C15.125 17.1152 14.7529 17.1182 14.4189 17.1182H13.5811L12.4736 17.1094C11.3281 17.0947 10.1826 17.0684 9.11328 17.0273C7.00684 16.9453 5.4541 16.8164 4.8418 16.6523C4.16797 16.4707 3.63477 15.9375 3.45312 15.2607C3.31543 14.7422 3.2041 13.9687 3.125 13.0254C3.06348 12.3018 3.02539 11.5225 3.00195 10.7432C2.99316 10.4707 2.99023 10.2158 2.9873 9.99023C2.9873 9.91113 2.98438 9.84082 2.98438 9.78223V9.6416C2.98438 9.58008 2.98438 9.51269 2.9873 9.43359C2.99023 9.20508 2.99609 8.95312 3.00195 8.68066C3.02246 7.90137 3.06348 7.12207 3.125 6.39844C3.2041 5.45508 3.31543 4.68164 3.45312 4.16309C3.63477 3.48633 4.16797 2.9502 4.8418 2.77148C5.45703 2.60742 7.00684 2.47559 9.11328 2.39648C10.1797 2.35547 11.3281 2.3291 12.4736 2.31445C12.875 2.30859 13.2471 2.30566 13.5811 2.30566H14.4189L15.5264 2.31445C16.6719 2.3291 17.8174 2.35547 18.8867 2.39648C20.9932 2.47851 22.5459 2.60742 23.1582 2.77148C23.832 2.95312 24.3652 3.48633 24.5469 4.16309C24.6846 4.68164 24.7959 5.45508 24.875 6.39844C24.9365 7.12207 24.9746 7.90137 24.998 8.68066C25.0068 8.95312 25.0098 9.20801 25.0127 9.43359C25.0127 9.51269 25.0156 9.58301 25.0156 9.6416V9.78223ZM11.3926 13.6377L18.1895 9.68262L11.3926 5.78613V13.6377Z" fill="#57548B"/>
</svg>
