<svg width="26" height="27" viewBox="0 0 26 27" fill="none" xmlns="http://www.w3.org/2000/svg">
<path fill-rule="evenodd" clip-rule="evenodd" d="M7.70913 0.955906C9.07763 0.892906 9.51396 0.878906 13 0.878906C16.486 0.878906 16.9223 0.894073 18.2896 0.955906C19.657 1.01774 20.5903 1.23591 21.407 1.55207C22.2621 1.87524 23.038 2.38041 23.6796 3.03374C24.333 3.67424 24.837 4.44891 25.159 5.30524C25.4763 6.12191 25.6933 7.05524 25.7563 8.42024C25.8193 9.79107 25.8333 10.2274 25.8333 13.7122C25.8333 17.1982 25.8181 17.6346 25.7563 19.0031C25.6945 20.3681 25.4763 21.3014 25.159 22.1181C24.837 22.9745 24.3321 23.7505 23.6796 24.3919C23.038 25.0452 22.2621 25.5492 21.407 25.8712C20.5903 26.1886 19.657 26.4056 18.292 26.4686C16.9223 26.5316 16.486 26.5456 13 26.5456C9.51396 26.5456 9.07763 26.5304 7.70913 26.4686C6.34413 26.4067 5.41079 26.1886 4.59413 25.8712C3.7377 25.5492 2.96175 25.0444 2.32029 24.3919C1.6674 23.751 1.16216 22.9754 0.839793 22.1192C0.523626 21.3026 0.306626 20.3692 0.243626 19.0042C0.180626 17.6334 0.166626 17.1971 0.166626 13.7122C0.166626 10.2262 0.181793 9.78991 0.243626 8.42257C0.305459 7.05524 0.523626 6.12191 0.839793 5.30524C1.16264 4.449 1.66826 3.67344 2.32146 3.03257C2.96201 2.37982 3.73718 1.87459 4.59296 1.55207C5.40963 1.23591 6.34296 1.01891 7.70796 0.955906H7.70913ZM18.1858 3.26591C16.8325 3.20407 16.4265 3.19124 13 3.19124C9.57346 3.19124 9.16746 3.20407 7.81413 3.26591C6.56229 3.32307 5.88329 3.53191 5.43063 3.70807C4.83213 3.94141 4.40396 4.21791 3.95479 4.66707C3.52901 5.0813 3.20134 5.58557 2.99579 6.14291C2.81963 6.59557 2.61079 7.27457 2.55363 8.52641C2.49179 9.87974 2.47896 10.2857 2.47896 13.7122C2.47896 17.1387 2.49179 17.5447 2.55363 18.8981C2.61079 20.1499 2.81963 20.8289 2.99579 21.2816C3.20113 21.8381 3.52896 22.3432 3.95479 22.7574C4.36896 23.1832 4.87413 23.5111 5.43063 23.7164C5.88329 23.8926 6.56229 24.1014 7.81413 24.1586C9.16746 24.2204 9.57229 24.2332 13 24.2332C16.4276 24.2332 16.8325 24.2204 18.1858 24.1586C19.4376 24.1014 20.1166 23.8926 20.5693 23.7164C21.1678 23.4831 21.596 23.2066 22.0451 22.7574C22.471 22.3432 22.7988 21.8381 23.0041 21.2816C23.1803 20.8289 23.3891 20.1499 23.4463 18.8981C23.5081 17.5447 23.521 17.1387 23.521 13.7122C23.521 10.2857 23.5081 9.87974 23.4463 8.52641C23.3891 7.27457 23.1803 6.59557 23.0041 6.14291C22.7708 5.54441 22.4943 5.11624 22.0451 4.66707C21.6309 4.24132 21.1266 3.91365 20.5693 3.70807C20.1166 3.53191 19.4376 3.32307 18.1858 3.26591ZM11.3608 17.6684C12.2762 18.0495 13.2956 18.1009 14.2447 17.8139C15.1939 17.5269 16.0139 16.9193 16.5648 16.0949C17.1158 15.2704 17.3634 14.2803 17.2653 13.2935C17.1673 12.3068 16.7298 11.3847 16.0275 10.6847C15.5797 10.2373 15.0384 9.89469 14.4423 9.68158C13.8463 9.46847 13.2105 9.39016 12.5805 9.45229C11.9506 9.51442 11.3423 9.71545 10.7994 10.0409C10.2565 10.3663 9.79249 10.8081 9.44081 11.3344C9.08913 11.8607 8.85851 12.4584 8.76556 13.0845C8.67261 13.7106 8.71964 14.3496 8.90326 14.9553C9.08687 15.5611 9.40252 16.1186 9.82747 16.5877C10.2524 17.0569 10.7761 17.426 11.3608 17.6684ZM8.33563 9.04791C8.94815 8.43538 9.67533 7.94949 10.4756 7.61799C11.2759 7.2865 12.1337 7.11588 13 7.11588C13.8662 7.11588 14.724 7.2865 15.5243 7.61799C16.3246 7.94949 17.0518 8.43538 17.6643 9.04791C18.2768 9.66043 18.7627 10.3876 19.0942 11.1879C19.4257 11.9882 19.5963 12.846 19.5963 13.7122C19.5963 14.5785 19.4257 15.4363 19.0942 16.2366C18.7627 17.0369 18.2768 17.764 17.6643 18.3766C16.4272 19.6136 14.7494 20.3086 13 20.3086C11.2505 20.3086 9.57268 19.6136 8.33563 18.3766C7.09857 17.1395 6.4036 15.4617 6.4036 13.7122C6.4036 11.9628 7.09857 10.285 8.33563 9.04791ZM21.0593 8.09824C21.2111 7.95505 21.3326 7.78287 21.4166 7.59188C21.5007 7.40088 21.5456 7.19497 21.5486 6.98632C21.5517 6.77768 21.5128 6.57054 21.4344 6.37718C21.3559 6.18382 21.2395 6.00817 21.0919 5.86062C20.9444 5.71307 20.7687 5.59662 20.5753 5.51818C20.382 5.43973 20.1749 5.40088 19.9662 5.40392C19.7576 5.40696 19.5516 5.45184 19.3607 5.53589C19.1697 5.61993 18.9975 5.74145 18.8543 5.89324C18.5758 6.18844 18.4234 6.58055 18.4293 6.98632C18.4352 7.3921 18.599 7.7796 18.886 8.06656C19.1729 8.35351 19.5604 8.51734 19.9662 8.52325C20.372 8.52917 20.7641 8.37671 21.0593 8.09824Z" fill="#57548B"/>
</svg>
