<svg width="465" height="220" viewBox="0 0 465 220" fill="none" xmlns="http://www.w3.org/2000/svg">
<mask id="mask0" mask-type="alpha" maskUnits="userSpaceOnUse" x="0" y="0" width="465" height="220">
<rect width="465" height="220" rx="4" fill="#78D2BD"/>
</mask>
<g mask="url(#mask0)">
<path opacity="0.15" d="M28.7086 177.346C-16.1348 167.318 -50.7048 169.226 -70.7857 171.624C-74.7205 183.862 -80.2293 209.675 -70.7857 215.015C-58.9813 221.691 47.2584 224.552 119.771 227.89C177.781 230.56 430.621 233.294 541.357 227.89C553.162 207.386 569.688 143.395 541.357 143.014C505.944 142.537 423.237 154.209 365.822 181.389C290.78 216.912 261.269 168.749 177.795 163.265C130.046 160.129 73.6308 187.391 28.7086 177.346Z" fill="white"/>
<path opacity="0.15" d="M28.808 154.95C-7.64668 148.025 -39.6148 154.451 -63.7857 154.95C-67.7205 174.17 -73.2293 214.705 -63.7857 223.092C-51.9813 233.575 54.2584 238.068 126.771 243.309C184.781 247.503 437.621 231.578 548.357 223.092C560.162 190.893 576.688 110.621 548.357 110.022C512.944 109.273 430.237 127.603 372.822 170.285C297.78 226.071 178.893 212.592 136.734 193.123C102.758 177.433 76.0256 163.92 28.808 154.95Z" fill="white"/>
</g>
</svg>
