<svg width="465" height="135" viewBox="0 0 465 135" fill="none" xmlns="http://www.w3.org/2000/svg">
<path opacity="0.15" d="M48.3418 58.9342C-36.1734 41.728 -101.327 45.0008 -139.173 49.1159C-146.589 70.1163 -156.971 114.408 -139.173 123.572C-116.925 135.027 83.3021 139.936 219.965 145.663C329.296 150.245 805.816 154.936 1014.52 145.663C1036.77 110.481 1067.91 0.678599 1014.52 0.0240414C947.776 -0.794156 791.9 19.2342 683.692 65.8713C542.261 126.827 486.643 44.1826 329.321 34.7734C239.331 29.3911 133.006 76.1707 48.3418 58.9342Z" fill="white"/>
<path opacity="0.15" d="M47.6454 68.6403C-21.175 61.1468 -81.5256 68.1001 -127.156 68.6403C-134.585 89.4373 -144.984 133.3 -127.156 142.375C-104.872 153.719 95.6915 158.581 232.584 164.253C342.098 168.79 819.416 151.558 1028.47 142.375C1050.75 107.533 1081.95 20.672 1028.47 20.0238C961.615 19.2135 805.477 39.048 697.088 85.2335C555.42 145.599 330.98 131.014 251.392 109.947C187.25 92.9686 136.785 78.3462 47.6454 68.6403Z" fill="white"/>
</svg>
