<svg width="465" height="320" viewBox="0 0 465 320" fill="none" xmlns="http://www.w3.org/2000/svg">
<mask id="mask0" mask-type="alpha" maskUnits="userSpaceOnUse" x="0" y="0" width="465" height="320">
<rect width="465" height="320" rx="4" fill="#E484CF"/>
</mask>
<g mask="url(#mask0)">
<path opacity="0.15" d="M-72.6436 246.519C-146.887 231.477 -204.121 234.338 -237.367 237.936C-243.882 256.294 -253.002 295.012 -237.367 303.023C-217.824 313.037 -41.9324 317.328 78.1204 322.335C174.163 326.34 592.765 330.441 776.102 322.335C795.645 291.579 823.006 195.593 776.102 195.021C717.471 194.306 580.541 211.814 485.484 252.583C361.244 305.869 312.385 233.623 174.185 225.398C95.132 220.693 1.73006 261.586 -72.6436 246.519Z" fill="white"/>
<path opacity="0.15" d="M-73.6048 256.931C-134.132 250.471 -187.21 256.466 -227.343 256.931C-233.876 274.86 -243.022 312.673 -227.343 320.496C-207.743 330.275 -31.3483 334.466 89.0482 339.356C185.365 343.267 605.166 328.412 789.028 320.496C808.627 290.46 836.066 215.579 789.028 215.021C730.229 214.322 592.907 231.421 497.578 271.236C372.982 323.275 175.588 310.702 105.59 292.54C49.1776 277.904 4.79292 265.298 -73.6048 256.931Z" fill="white"/>
</g>
</svg>
