<svg width="465" height="220" viewBox="0 0 465 220" fill="none" xmlns="http://www.w3.org/2000/svg">
<mask id="mask0" mask-type="alpha" maskUnits="userSpaceOnUse" x="0" y="0" width="465" height="220">
<rect width="465" height="220" rx="4" fill="white"/>
</mask>
<g mask="url(#mask0)">
<path opacity="0.15" d="M110.694 168.884C46.1567 155.78 -3.59574 158.272 -32.4957 161.406C-38.1586 177.4 -46.0867 211.132 -32.4957 218.111C-15.5071 226.835 137.391 230.574 241.75 234.936C325.237 238.425 689.118 241.998 848.487 234.936C865.476 208.141 889.26 124.517 848.487 124.018C797.521 123.395 678.491 138.649 595.861 174.167C487.862 220.59 445.39 157.649 325.256 150.483C256.538 146.384 175.345 182.011 110.694 168.884Z" fill="white"/>
<path opacity="0.15" d="M110.072 174.906C57.4922 169.066 11.3834 174.485 -23.4793 174.906C-29.1546 191.113 -37.1 225.296 -23.4793 232.368C-6.45332 241.209 146.78 244.997 251.368 249.418C335.039 252.954 699.718 239.525 859.438 232.368C876.464 205.216 900.3 137.524 859.438 137.019C808.36 136.387 689.069 151.844 606.257 187.837C498.021 234.881 326.545 223.514 265.738 207.097C216.733 193.865 178.176 182.47 110.072 174.906Z" fill="white"/>
</g>
</svg>
