<svg width="465" height="95" viewBox="0 0 465 95" fill="none" xmlns="http://www.w3.org/2000/svg">
<path opacity="0.15" d="M-108.652 39.0293C-164.476 27.6345 -207.511 29.8019 -232.509 32.5271C-237.407 46.4346 -244.265 75.7669 -232.509 81.8357C-217.814 89.4216 -85.5599 92.6727 4.70882 96.4657C76.9238 99.5 391.675 102.607 529.527 96.4657C544.222 73.166 564.795 0.449403 529.527 0.0159215C485.442 -0.525931 382.483 12.7379 311.009 43.6234C217.592 83.9914 180.854 29.26 76.9405 23.0287C17.5001 19.4643 -52.7297 50.4442 -108.652 39.0293Z" fill="white"/>
<path opacity="0.15" d="M-109.933 44.5387C-155.43 39.5258 -195.327 44.1773 -225.492 44.5387C-230.403 58.4512 -237.278 87.7939 -225.492 93.8648C-210.76 101.453 -78.1705 104.706 12.3273 108.5C84.7256 111.536 400.275 100.008 538.477 93.8648C553.21 70.5569 573.835 12.4496 538.477 12.0159C494.281 11.4739 391.06 24.7424 319.405 55.639C225.751 96.0213 77.3762 86.2645 24.7612 72.1714C-17.642 60.8134 -51.0044 51.0316 -109.933 44.5387Z" fill="white"/>
</svg>
